<svg xmlns="http://www.w3.org/2000/svg" width="1600" height="900" viewBox="0 0 1600 900" role="img" aria-labelledby="title desc">
  <title id="title">ProteinLoop cover image</title>
  <desc id="desc">A clean cover image for ProteinLoop showing a closed aquaponic protein cycle and verifier-gated AI loop.</desc>
  <rect width="1600" height="900" fill="#0b1220"/>
  <rect x="72" y="72" width="1456" height="756" rx="36" fill="#f8fafc"/>
  <circle cx="800" cy="450" r="250" fill="none" stroke="#0f766e" stroke-width="18" stroke-dasharray="92 28"/>
  <circle cx="800" cy="450" r="164" fill="#e0f2fe" stroke="#0369a1" stroke-width="10"/>
  <text x="800" y="420" text-anchor="middle" font-family="Arial, sans-serif" font-size="84" font-weight="700" fill="#0f172a">ProteinLoop</text>
  <text x="800" y="480" text-anchor="middle" font-family="Arial, sans-serif" font-size="34" fill="#334155">An agentic loop that closes the protein cycle</text>
  <g font-family="Arial, sans-serif" font-size="30" font-weight="700" fill="#0f172a">
    <rect x="214" y="374" width="196" height="100" rx="18" fill="#ccfbf1" stroke="#0f766e" stroke-width="5"/>
    <text x="312" y="435" text-anchor="middle">Fish</text>
    <rect x="420" y="168" width="232" height="100" rx="18" fill="#dcfce7" stroke="#15803d" stroke-width="5"/>
    <text x="536" y="229" text-anchor="middle">Duckweed</text>
    <rect x="948" y="168" width="232" height="100" rx="18" fill="#fef3c7" stroke="#b45309" stroke-width="5"/>
    <text x="1064" y="229" text-anchor="middle">Eggs</text>
    <rect x="1190" y="374" width="196" height="100" rx="18" fill="#ede9fe" stroke="#7c3aed" stroke-width="5"/>
    <text x="1288" y="435" text-anchor="middle">Plants</text>
    <rect x="684" y="660" width="232" height="100" rx="18" fill="#fee2e2" stroke="#b91c1c" stroke-width="5"/>
    <text x="800" y="721" text-anchor="middle">Verifier</text>
  </g>
  <path d="M428 412 C510 272 598 222 716 218" fill="none" stroke="#64748b" stroke-width="8" marker-end="url(#arrow)"/>
  <path d="M884 218 C1004 222 1094 274 1172 412" fill="none" stroke="#64748b" stroke-width="8" marker-end="url(#arrow)"/>
  <path d="M1200 486 C1108 610 1010 686 920 706" fill="none" stroke="#64748b" stroke-width="8" marker-end="url(#arrow)"/>
  <path d="M680 706 C560 674 454 588 384 486" fill="none" stroke="#64748b" stroke-width="8" marker-end="url(#arrow)"/>
  <defs>
    <marker id="arrow" markerWidth="12" markerHeight="12" refX="10" refY="6" orient="auto" markerUnits="strokeWidth">
      <path d="M2 2 L10 6 L2 10 Z" fill="#64748b"/>
    </marker>
  </defs>
</svg>
